Coordinates
version=1
nRows=15
nColumns=19
inDegrees=yes

Units are S.I. units (second, meters, Newtons, ...)
If the header above contains a line with 'inDegrees', this indicates whether rotational values are in degrees (yes) or radians (no).

endheader
time	pelvis_tilt	pelvis_list	pelvis_rotation	pelvis_tx	pelvis_ty	pelvis_tz	hip_flexion_r	hip_adduction_r	hip_rotation_r	knee_angle_r	knee_angle_r_beta	ankle_angle_r	hip_flexion_l	hip_adduction_l	hip_rotation_l	knee_angle_l	knee_angle_l_beta	ankle_angle_l
     14.93333333	     -7.94449243	     -2.52286800	     -1.66226343	      2.39749428	      0.94859537	      1.00099177	     29.82632158	      4.39992221	    -13.13111397	     17.97803851	      0.31377597	     -3.93747667	    -12.81778785	      0.13657603	      1.32082022	     53.08202870	      0.92645617	    -24.56044059
     14.94000000	     -7.55570186	     -2.91179805	     -2.36426603	      2.39701719	      0.94495560	      1.00173447	     29.55543724	      4.86350608	    -13.69172611	     20.64262086	      0.36028170	     -1.64639273	    -11.90103687	     -0.28690908	      0.39372361	     56.88792468	      0.99288159	    -24.97951505
     14.94666667	     -6.80511170	     -3.37981545	     -2.98454902	      2.39642779	      0.94153827	      1.00245462	     28.80860751	      5.33236852	    -14.13435462	     23.51258025	      0.41037194	      0.99305130	    -11.30411932	     -0.95777838	     -0.67314027	     60.62920727	      1.05817929	    -25.25446994
     14.95333333	     -6.61945473	     -3.54173179	     -3.60662107	      2.39546454	      0.93731321	      1.00305027	     28.75095397	      5.47947799	    -14.12499810	     26.76108215	      0.46706899	      3.78870127	     -9.91415307	     -1.24135939	     -1.37906389	     64.45595632	      1.12496866	    -25.25208397
     14.96000000	     -5.81987927	     -3.93353353	     -4.04371582	      2.39451115	      0.93390335	      1.00355419	     27.74636488	      5.82067141	    -14.02565819	     29.64658475	      0.51743052	      6.64795698	     -9.15152673	     -1.92753500	     -2.11490765	     68.10229690	      1.18860931	    -24.94760753
     14.96666667	     -5.54321778	     -3.97183161	     -4.42545321	      2.39307688	      0.93003543	      1.00398833	     27.29780242	      5.84227304	    -13.54274862	     32.53243937	      0.56779818	      9.44990867	     -7.58888840	     -2.23594495	     -2.52435023	     71.78870805	      1.25294932	    -24.12925085
     14.97333333	     -4.79533700	     -4.26626645	     -4.60469715	      2.39167957	      0.92708875	      1.00435573	     26.02333565	      6.09274257	    -13.10730915	     34.87245139	      0.60863909	     12.14647012	     -6.49763005	     -2.91505145	     -2.80791741	     75.23429942	      1.31308624	    -23.20954741
     14.98000000	     -4.72871015	     -4.19013063	     -4.66336910	      2.38972100	      0.92375757	      1.00462454	     25.46254826	      5.99155524	    -12.49948503	     37.05095807	      0.64666121	     14.58586687	     -4.37534042	     -3.22000258	     -2.73014931	     78.71292749	      1.37379975	    -21.58983434
     14.98666667	     -4.40626956	     -4.25890151	     -4.54403283	      2.38774144	      0.92132703	      1.00482148	     24.33396626	      6.00369373	    -12.02591889	     38.65514643	      0.67465958	     16.80382219	     -2.45415914	     -3.70652094	     -2.45311916	     81.92140996	      1.42979833	    -19.74673850
     14.99333333	     -4.07948353	     -4.35172660	     -4.26930341	      2.38566428	      0.91952076	      1.00488785	     22.96673723	      6.01088959	    -11.67901896	     39.76301943	      0.69399561	     18.75981925	     -0.42009341	     -4.20553753	     -1.94148654	     84.88425096	      1.48150966	    -17.62764867
     15.00000000	     -3.87953177	     -4.38947462	     -3.86969780	      2.38354409	      0.91821205	      1.00489342	     21.53213213	      5.94321620	    -11.45977162	     40.42034208	      0.70546805	     20.41870811	      1.86730600	     -4.61362918	     -1.21703573	     87.58120781	      1.52858044	    -15.29451212
     15.00666667	     -3.84011259	     -4.39537168	     -3.35760660	      2.38139306	      0.91737126	      1.00479369	     20.06893038	      5.83449087	    -11.37779639	     40.64363400	      0.70936523	     21.81615544	      4.43074259	     -4.92549420	     -0.30589862	     89.99005186	      1.57062270	    -12.89539448
     15.01333333	     -4.17204368	     -4.34485973	     -2.75441976	      2.37920590	      0.91669185	      1.00459156	     18.84340822	      5.66761194	    -11.44739030	     40.50080194	      0.70687234	     22.92541731	      7.50396608	     -5.06879877	      0.80295546	     92.13101415	      1.60798954	    -10.61687360
     15.02000000	     -4.13892329	     -4.17314861	     -2.33676686	      2.37741771	      0.91713011	      1.00460296	     16.96642424	      5.50453360	    -11.17021806	     39.88640809	      0.69614915	     23.89642040	     10.02293707	     -4.99988185	      1.63947147	     93.68681450	      1.63514338	     -8.38348202
     15.02666667	     -4.57779418	     -4.20435796	     -1.61054114	      2.37551139	      0.91740047	      1.00427207	     15.46910235	      5.43409764	    -11.57908701	     38.95823114	      0.67994940	     24.25397506	     13.19534049	     -5.03846228	      2.87420034	     95.10509523	      1.65989705	     -6.09365895
